<svg xmlns="http://www.w3.org/2000/svg" width="122" height="20" viewBox="0 0 122 20">
  <path fill="#000000" stroke="#000000" stroke-width=".5" d="M609.64,624.08 L608.36,623.51 L607.61,622.89 L607.03,620.2 L605.86,620.14 L605.3,619.5 L604.91,619.58 L604.55,620.19 L604.19,620.27 L602.18,619.58 L601.51,619.22 L601.45,618.58 L601.92,617.87 L602.63,617.12 L603.55,616.43 L604.19,616.65 L604.75,616.24 L604.95,615.3 L606.51,614.64 L608.41,614.7 L609.19,615.17 L610.73,614.56 L611.82,615.59 L613,615.05 L614.33,614.09 L615.1,613.92 L615.22,613.3 L615.77,612.96 L616.31,612.41 L617.5,611.19 L619.92,609.95 L620.83,609.26 L621.59,607.93 L621.95,607.93 L621.81,608.67 L621.44,609.66 L621.39,610.07 L622.37,609.68 L624.32,609.9 L625.05,609.68 L627.25,609.96 L630.25,610.83 L631.77,610.93 L631.6,610.49 L632.41,609.66 L633.86,609.66 L634.28,609.72 L634.03,610.33 L634.2,610.86 L634.2,611.8 L633.99,612.29 L633.66,612.69 L632.49,613.46 L630.62,614.32 L629.31,614.32 L629.17,613.27 L627.33,612.69 L626.16,614.3 L625.1,614.74 L624.49,614.6 L623.66,615.16 L622.95,615.34 L622.01,614.48 L622.35,613.71 L621.85,612.52 L620.7,612.72 L619.43,613.25 L619.95,613.49 L620.57,614.51 L620.71,615.06 L620.54,615.46 L619.98,616.37 L619.02,617.4 L617.63,618.61 L617.02,618.55 L616.43,618.87 L615.82,619.7 L614.98,621.84 L613.36,623.92 L612.75,624.06 L612.39,623.64 L611.89,623.56 L610.88,625.42 L609.64,624.08 Z M634.28,614.35 L634.98,614.41 L635.29,614.74 L635.57,614.69 L636.04,614.16 L635.93,613.83 L635.43,613.41 L634.82,613.41 L634.26,614.02 L634.28,614.35 Z M690.41,607.17 L690.81,608.07 L691.13,609.11 L691.31,610.13 L691.79,610.52 L693.93,609.1 L695.26,608.46 L695.82,608.31 L696.28,608.32 L696.22,607.96 L695.34,607.92 L694.39,607.81 L693.35,607.62 L692.21,607.27 L691.4,606.84 L690.41,607.17 Z M698.9,610.72 L699.23,610.58 L699.45,609.42 L698.86,608.62 L698.86,607.1 L698.38,606.77 L698.06,607.23 L697.58,607.68 L697.23,607.91 L696.69,608.09 L696.78,608.44 L697.38,609.11 L698.39,609.72 L698.9,610.72 Z M709.42,615.1 L709.82,616.08 L710.66,616.88 L711.43,617.29 L712.27,619.92 L713.03,620.48 L713.67,620.75 L714.12,620.53 L714.67,619.58 L715.3,618.87 L716.11,618.39 L717.12,618.22 L718.16,618.34 L719.16,618.63 L719.86,618.97 L720.31,619.3 L720.83,618.99 L721.18,618.55 L721.18,617.76 L720.92,616.48 L721.78,614.46 L720.83,613.55 L720.13,613.41 L719.35,613.65 L718.54,613.78 L717.84,613.76 L717.26,613.61 L716.65,613.28 L715.65,614.14 L714.67,613.84 L712.75,614.48 L711.52,613.63 L711.02,613.83 L710.72,614.55 L709.42,615.1 Z" transform="translate(-601 -606)"/>
</svg>
