<svg xmlns="http://www.w3.org/2000/svg" width="70" height="89" viewBox="0 0 70 89">
  <g fill="#000000" transform="matrix(1 0 0 -1 .104 88.875)">
    <path d="M49.7579618,88.7707006 C49.2675159,88.6518047 47.9002123,87.388535 47.8110403,86.9723992 C47.6178344,86.1995754 46.7261146,84.6242038 45.8492569,83.5244161 C45.0169851,82.4989384 44.9426752,82.3651805 44.8535032,81.4437367 C44.7197452,80.0467091 44.7346072,79.1549894 44.8980892,77.7133758 C45.0912951,76.1231423 44.8683652,74.9490446 44.2590234,74.3099788 C43.9469214,73.9830149 43.8577495,73.7452229 43.8577495,73.1953291 C43.8428875,72.5711253 43.7983015,72.4968153 43.3673036,72.3184713 C42.8619958,72.1104034 42.14862,71.3375796 41.910828,70.7430998 C41.3906582,69.4649682 40.8110403,68.3651805 40.6475584,68.3651805 C40.5435244,68.3651805 40.4246285,68.2611465 40.3800425,68.1422505 C40.3205945,68.0233546 40.2016985,67.9193206 40.0976645,67.9193206 C39.9787686,67.9193206 39.8747346,67.5923567 39.8152866,67.0424628 C39.7558386,66.537155 39.6220807,66.0764331 39.4883227,65.9723992 C39.3694268,65.8683652 39.1762208,65.5859873 39.0721868,65.3333333 C38.9532909,65.0806794 38.656051,64.6496815 38.388535,64.3821656 C37.9575372,63.9511677 37.9129512,63.8471338 38.0169851,63.3418259 C38.0764331,63.044586 38.1061571,62.4203822 38.0912951,61.9745223 C38.0764331,61.3354565 38.1507431,61.0530786 38.388535,60.7558386 L38.7006369,60.3545648 L38.2696391,59.418259 C37.4373673,57.5753715 35.4161359,56.5796178 34.5838641,57.6199575 C34.2717622,58.0212314 34.2569002,58.0212314 33.3949045,57.8280255 C32.9193206,57.7239915 32.3545648,57.6050955 32.1613588,57.5456476 C31.611465,57.3821656 31.1953291,56.7133758 31.1804671,55.970276 C31.1507431,55.3757962 31.1953291,55.3014862 31.537155,55.2123142 C31.7452229,55.1528662 32.0127389,55.0488323 32.1019108,54.9596603 C32.4140127,54.7070064 32.3248408,54.0382166 31.9235669,53.4437367 C31.7154989,53.1316348 31.596603,52.8046709 31.641189,52.7154989 C31.7006369,52.611465 31.6857749,52.581741 31.626327,52.656051 C31.552017,52.7154989 31.403397,52.670913 31.2696391,52.566879 C30.4968153,51.9278132 27.985138,51.4076433 28.1783439,51.9278132 C28.2229299,52.0467091 28.1783439,52.2547771 28.07431,52.403397 C27.895966,52.641189 27.866242,52.611465 27.7027601,52.1210191 C27.4649682,51.4225053 27.3609342,51.3630573 26.6772824,51.5859873 C26.3800425,51.6900212 25.9787686,51.7643312 25.7855626,51.7346072 C25.5923567,51.7197452 25.3397028,51.7791932 25.2208068,51.8683652 C25.0870488,51.9872611 24.7006369,52.0318471 24.1953291,51.9872611 C23.7346072,51.9426752 23.3333333,51.9723992 23.2887473,52.0467091 C23.2441614,52.1061571 23.0658174,52.2399151 22.9023355,52.329087 C22.6199575,52.477707 22.6050955,52.462845 22.6794055,52.1804671 C22.7388535,51.9426752 22.6942675,51.8683652 22.4416136,51.8683652 C22.2781316,51.8683652 21.8917197,51.7048832 21.5796178,51.4968153 C21.014862,51.0955414 19.7813163,50.8131635 19.1273885,50.9469214 C18.9341826,50.9766454 18.6963907,51.1401274 18.6072187,51.3036093 C18.3842887,51.7197452 18.1762208,51.4819533 18.1762208,50.8280255 C18.1762208,50.2335456 17.7898089,49.7876858 17.2696391,49.7876858 C17.1358811,49.7876858 16.5414013,49.5647558 15.9320594,49.2823779 C14.8025478,48.7622081 14.1932059,48.7473461 14.2823779,49.2526539 C14.3121019,49.3864119 14.2229299,49.5350318 14.089172,49.5796178 C13.8067941,49.6836518 13.3906582,49.3715499 13.5244161,49.14862 C13.5690021,49.07431 13.5392781,49.044586 13.4649682,49.089172 C13.3757962,49.14862 12.9150743,49.014862 12.4394904,48.7919321 L11.5774947,48.4055202 L10.670913,48.6581741 C9.94267516,48.866242 9.25902335,48.910828 6.95541401,48.895966 C5.30573248,48.881104 4.01273885,48.8067941 3.8343949,48.7027601 C3.67091295,48.6284501 3.41825902,48.3906582 3.25477707,48.1825902 C3.09129512,47.9893843 2.73460722,47.7218684 2.4373673,47.6029724 C1.85774947,47.3651805 1.23354565,46.8450106 1.23354565,46.6072187 C1.23354565,46.5329087 1.42675159,46.6369427 1.64968153,46.8598726 C1.87261146,47.0828025 2.15498938,47.2611465 2.24416136,47.2611465 C2.34819533,47.2611465 2.77919321,47.5732484 3.19532909,47.9745223 C3.92356688,48.6581741 3.96815287,48.6730361 4.85987261,48.6433121 C5.35031847,48.6433121 6.03397028,48.6135881 6.36093418,48.5838641 C6.70276008,48.5690021 7.04458599,48.5838641 7.13375796,48.6433121 C7.22292994,48.7027601 7.47558386,48.6878981 7.6985138,48.5987261 C8.23354565,48.3906582 8.76857749,48.4055202 8.85774947,48.6433121 C8.90233546,48.7622081 8.96178344,48.7324841 9.03609342,48.5392781 C9.1104034,48.3757962 9.08067941,48.1380042 8.97664544,47.9893843 C8.76857749,47.6475584 8.85774947,47.6326964 9.31847134,47.9447983 C9.55626327,48.0785563 9.70488323,48.1082803 9.76433121,48.0191083 C9.82377919,47.9299363 10.373673,47.8704883 10.9830149,47.8853503 C11.9490446,47.8853503 12.1571125,47.9447983 12.4840764,48.2420382 C12.9596603,48.6878981 13.955414,49.014862 14.1783439,48.7919321 C14.2823779,48.6878981 14.163482,48.5392781 13.7919321,48.3163482 C13.4055202,48.0934183 13.2717622,47.9299363 13.3312102,47.7367304 C13.4055202,47.5138004 13.2569002,47.4840764 11.6963907,47.4543524 C10.7452229,47.4394904 9.94267516,47.4097665 9.92781316,47.3800425 C9.89808917,47.3503185 9.85350318,47.0976645 9.82377919,46.8152866 C9.7940552,46.4288747 9.83864119,46.2951168 10.0021231,46.2951168 C10.1507431,46.2951168 10.2101911,46.4140127 10.1953291,46.6369427 C10.1656051,46.8152866 10.2250531,46.9639066 10.2993631,46.9639066 C10.388535,46.9639066 10.447983,46.9044586 10.447983,46.8152866 C10.447983,46.7409766 10.611465,46.6220807 10.8343949,46.5774947 C11.1019108,46.5031847 11.2951168,46.5626327 11.5329087,46.7855626 C11.7261146,46.9639066 12.0976645,47.1273885 12.3800425,47.1422505 C12.8853503,47.1868365 12.8853503,47.1719745 13.0191083,46.4437367 C13.1974522,45.358811 13.1974522,45.388535 12.8259023,44.5859873 C12.4394904,43.7685775 12.3057325,43.6794055 12.1868365,44.1549894 C12.1422505,44.3184713 11.9639066,44.4968153 11.8004246,44.5414013 C11.6369427,44.5859873 11.4734607,44.6900212 11.4437367,44.7940552 C11.3991507,44.9129512 11.1613588,44.9575372 10.8195329,44.9129512 C10.433121,44.8683652 10.3142251,44.8089172 10.433121,44.6900212 C10.6857749,44.4373673 10.626327,44.2887473 10.3142251,44.2887473 C9.91295117,44.2887473 9.82377919,44.0955414 9.94267516,43.4713376 C10.0318471,42.9363057 10.0467091,42.9363057 10.626327,43.0254777 C11.1019108,43.1146497 11.2505308,43.0700637 11.4140127,42.8471338 C11.7558386,42.4012739 11.6666667,41.5987261 11.1316348,40.4989384 C10.7006369,39.6072187 10.656051,39.4437367 10.8641189,39.3694268 C11.0721868,39.2951168 11.0573248,39.2802548 10.8343949,39.1910828 C10.2845011,38.9830149 10.0615711,39.1019108 9.52653928,39.9639066 C9.05095541,40.7218684 9.00636943,40.8704883 9.18471338,41.0191083 C9.49681529,41.2717622 9.4670913,41.3906582 9.02123142,41.5987261 C8.64968153,41.7622081 8.64968153,41.7770701 8.87261146,42.133758 C9.18471338,42.5944798 9.16985138,42.7728238 8.85774947,42.8322718 C8.66454352,42.8768577 8.72399151,42.9363057 9.06581741,43.0997877 C10.0318471,43.5307856 9.49681529,44.3184713 8.21868365,44.3630573 C7.84713376,44.3779193 7.47558386,44.4225053 7.38641189,44.4670913 C7.31210191,44.5265393 6.86624204,44.4670913 6.40552017,44.3630573 C5.9447983,44.2590234 5.52866242,44.2144374 5.48407643,44.2441614 C5.43949045,44.2887473 5.30573248,44.2441614 5.17197452,44.1401274 C4.84501062,43.8577495 3.07643312,44.2144374 2.4522293,44.6751592 C2.05095541,44.9872611 0.668789809,45.477707 0.193205945,45.477707 C-0.0445859873,45.477707 -0.0445859873,44.9575372 0.178343949,44.4373673 C0.520169851,43.6496815 1.18895966,43.0106157 1.96178344,42.7282378 C3.12101911,42.2823779 3.92356688,41.7324841 4.01273885,41.2717622 C4.05732484,41.0488323 4.16135881,40.8259023 4.22080679,40.7813163 C4.29511677,40.7367304 4.35456476,40.4394904 4.35456476,40.1125265 C4.35456476,39.3545648 4.9044586,38.7303609 5.45435244,38.8789809 C5.67728238,38.9235669 5.85562633,38.8938429 5.92993631,38.7600849 C6.16772824,38.403397 6.10828025,38.1953291 5.79617834,38.1953291 C5.54352442,38.1953291 5.52866242,38.1507431 5.66242038,38.0169851 C5.81104034,37.8683652 5.91507431,37.8683652 6.13800425,38.0169851 C6.3014862,38.1061571 6.6581741,38.1953291 6.92569002,38.1953291 C7.92144374,38.1953291 9.05095541,36.9617834 8.7537155,36.1889597 C8.70912951,36.0552017 8.76857749,35.9214437 8.88747346,35.8768577 C9.18471338,35.7579618 9.18471338,34.6284501 8.88747346,34.2420382 C8.76857749,34.0934183 8.66454352,33.7664544 8.66454352,33.5286624 C8.66454352,33.2462845 8.50106157,32.9639066 8.15923567,32.6369427 C7.43099788,31.9532909 6.83651805,30.7048832 6.80679406,29.7239915 C6.77707006,29.2781316 6.6433121,28.6390658 6.49469214,28.3121019 C6.34607219,27.985138 6.24203822,27.5987261 6.27176221,27.4649682 C6.2866242,27.3163482 6.13800425,26.8853503 5.9447983,26.4989384 C5.75159236,26.0976645 5.51380042,25.6220807 5.42462845,25.4140127 C4.66666667,23.6157113 4.1910828,22.9320594 3.56687898,22.6942675 C3.18046709,22.5456476 4.28025478,21.9957537 5.09766454,21.9214437 C5.21656051,21.9214437 5.30573248,21.8322718 5.29087049,21.7282378 C5.2611465,21.6242038 5.33545648,21.5498938 5.45435244,21.5498938 C5.73673036,21.5498938 6.2866242,20.85138 6.2866242,20.4946921 C6.2866242,20.3312102 6.39065817,20.2123142 6.50955414,20.2123142 C6.83651805,20.2123142 6.94055202,19.8556263 6.73248408,19.4692144 C6.62845011,19.2760085 6.59872611,18.9193206 6.6433121,18.6369427 C6.73248408,18.2208068 6.85138004,18.0870488 7.43099788,17.8343949 C7.99575372,17.581741 8.08492569,17.507431 7.92144374,17.3142251 C7.81740977,17.1953291 7.57961783,17.0912951 7.38641189,17.0912951 C6.94055202,17.0912951 6.94055202,16.8386412 7.3418259,16.0509554 C7.53503185,15.6794055 7.75796178,15.4564756 7.93630573,15.4564756 C8.24840764,15.4564756 8.29299363,15.2929936 8.0552017,15.0552017 C7.93630573,14.9363057 7.93630573,14.7430998 8.0552017,14.3715499 C8.20382166,13.92569 8.29299363,13.85138 8.63481953,13.866242 C9.14012739,13.895966 9.16985138,13.5838641 8.66454352,13.3312102 C8.45647558,13.2271762 8.20382166,12.9596603 8.09978769,12.7367304 C7.93630573,12.3949045 7.95116773,12.2611465 8.15923567,11.8004246 C8.29299363,11.5031847 8.53078556,11.1910828 8.69426752,11.1019108 C8.87261146,10.9830149 8.96178344,10.7452229 8.96178344,10.373673 C8.96178344,10.0764331 9.03609342,9.77919321 9.1104034,9.73460722 C9.31847134,9.61571125 9.30360934,8.82802548 9.08067941,8.48619958 C8.84288747,8.09978769 9.33333333,7.29723992 10.0615711,6.91082803 C10.373673,6.74734607 10.6857749,6.49469214 10.7600849,6.34607219 C10.8492569,6.21231423 11.0424628,6.09341826 11.1910828,6.09341826 C11.4288747,6.09341826 11.4585987,6.01910828 11.3991507,5.67728238 C11.2653928,5.05307856 11.7261146,4.59235669 12.6178344,4.45859873 C13.0488323,4.38428875 13.4203822,4.39915074 13.5244161,4.48832272 C13.7473461,4.66666667 14.014862,4.51804671 14.014862,4.23566879 C14.014862,3.92356688 14.4458599,3.56687898 14.8025478,3.56687898 C14.9808917,3.56687898 15.5307856,3.37367304 16.0212314,3.1507431 C16.5116773,2.91295117 17.0021231,2.74946921 17.1061571,2.7940552 C17.2101911,2.82377919 17.388535,2.77919321 17.507431,2.67515924 C17.7898089,2.4373673 19.4543524,2.7940552 20.0488323,3.22505308 C20.6135881,3.64118896 21,3.67091295 21,3.26963907 C21,2.64543524 22.3673036,2.4522293 22.4564756,3.06157113 C22.5010616,3.37367304 23.2292994,3.8492569 23.2292994,3.56687898 C23.2292994,3.47770701 23.3036093,3.41825902 23.3927813,3.41825902 C23.4819533,3.41825902 23.5265393,3.52229299 23.4670913,3.64118896 C23.4225053,3.76008493 23.4522293,3.8641189 23.5414013,3.8641189 C23.6157113,3.8641189 23.8089172,4.16135881 23.9723992,4.51804671 C24.1210191,4.87473461 24.3142251,5.21656051 24.403397,5.2611465 C24.492569,5.32059448 24.566879,5.52866242 24.566879,5.72186837 C24.566879,6.04883227 24.9087049,6.3163482 25.1613588,6.16772824 C25.3248408,6.06369427 25.8004246,6.6433121 25.6815287,6.82165605 C25.6369427,6.91082803 25.4288747,6.985138 25.2208068,6.985138 C25.0276008,6.985138 24.8641189,7.05944798 24.8641189,7.13375796 C24.8641189,7.22292994 24.9978769,7.28237792 25.1613588,7.28237792 C25.3099788,7.28237792 25.6963907,7.44585987 25.9936306,7.65392781 C26.2908705,7.86199575 26.6624204,8.02547771 26.7961783,8.02547771 C26.9447983,8.02547771 27.1380042,8.11464968 27.2271762,8.23354565 C27.3757962,8.4118896 27.3312102,8.50106157 27.0488323,8.69426752 C26.8407643,8.82802548 26.6326964,9.03609342 26.5881104,9.15498938 C26.4394904,9.55626327 26.9299363,9.55626327 27.4055202,9.15498938 L27.866242,8.76857749 L28.4607219,9.22929936 C28.9511677,9.63057325 29.0254777,9.76433121 28.9511677,10.0764331 C28.8768577,10.403397 28.8917197,10.433121 29.0700637,10.2696391 C29.4118896,9.98726115 29.9469214,10.7452229 29.8428875,11.3545648 C29.7685775,11.7558386 29.8428875,11.9044586 30.4968153,12.5583864 C30.9426752,12.9745223 31.2547771,13.4203822 31.2547771,13.5987261 C31.2547771,13.7770701 31.2993631,13.970276 31.358811,14.029724 C31.581741,14.2377919 31.8046709,15.2781316 31.6857749,15.4861996 C31.626327,15.6050955 31.611465,16.1995754 31.656051,16.8089172 C31.8046709,18.8598726 31.7749469,20.1380042 31.596603,20.5095541 C31.492569,20.7176221 31.403397,21.044586 31.403397,21.2526539 C31.403397,21.5796178 31.329087,21.6242038 30.7791932,21.6687898 C30.4076433,21.6985138 30.0955414,21.8174098 29.9766454,21.9660297 C29.7091295,22.3227176 29.8131635,22.3524416 30.5859873,22.1443737 C31.1953291,21.9808917 31.2993631,21.9808917 31.522293,22.2038217 C31.7303609,22.4118896 31.7600849,22.7537155 31.7154989,24.7749469 C31.6857749,26.4394904 31.611465,27.2866242 31.447983,27.6878981 C31.2250531,28.2229299 31.2250531,28.2823779 31.507431,28.6687898 C31.6857749,28.8917197 31.8492569,29.3673036 31.8938429,29.7388535 C31.9384289,30.0955414 32.0424628,30.6602972 32.1316348,30.9872611 C32.2208068,31.3142251 32.3248408,31.7600849 32.3694268,31.9978769 C32.4140127,32.2208068 32.5477707,32.3991507 32.6666667,32.3991507 C32.9490446,32.3991507 32.9490446,32.6369427 32.6666667,32.7558386 C32.5477707,32.8004246 32.3694268,33.0084926 32.2653928,33.2165605 C32.1762208,33.4246285 31.9978769,33.5881104 31.8938429,33.5881104 C31.537155,33.5881104 31.7749469,33.9299363 32.2059448,34.0488323 C32.6220807,34.1677282 33.5286624,34.940552 33.7961783,35.4161359 C33.9002123,35.6093418 33.9002123,35.7579618 33.7813163,35.9065817 C33.6326964,36.0700637 33.6475584,36.1889597 33.8407643,36.4861996 C33.9745223,36.6794055 34.0785563,36.9469214 34.0785563,37.0806794 C34.0785563,37.1995754 34.3163482,37.4225053 34.5987261,37.5562633 C35.2377919,37.8683652 35.2675159,38.2250531 34.6730361,38.641189 C34.4352442,38.8195329 34.2271762,39.0721868 34.2271762,39.2208068 C34.2271762,39.7112527 34.5987261,40.2908705 34.970276,40.3651805 C35.1783439,40.4097665 35.6390658,40.5435244 35.9957537,40.6624204 C36.4118896,40.7961783 36.9320594,40.8259023 37.4819533,40.7664544 C38.581741,40.6624204 38.8492569,40.8110403 39.3397028,41.8067941 C39.5477707,42.2526539 40.0530786,42.9214437 40.4692144,43.3078556 C41.1082803,43.9171975 41.2717622,43.9915074 41.866242,43.9915074 C42.2972399,43.9915074 42.6093418,44.0806794 42.7282378,44.2292994 C42.8322718,44.3481953 43.0552017,44.5711253 43.2038217,44.7048832 C44.0658174,45.447983 44.3481953,45.8046709 44.2738854,45.9978769 C44.2292994,46.1167728 44.2590234,46.2208068 44.3333333,46.2208068 C44.4076433,46.2208068 44.7791932,46.5626327 45.1656051,46.9639066 C45.552017,47.3800425 45.9235669,47.7070064 46.0127389,47.7070064 C46.0870488,47.7070064 46.3099788,47.8407643 46.5180467,48.0042463 C46.7261146,48.1677282 47.0530786,48.3014862 47.2314225,48.3014862 C47.5435244,48.3014862 48.940552,49.4904459 48.940552,49.7579618 C48.940552,49.8322718 49.104034,49.9660297 49.3121019,50.0552017 C49.5201699,50.1443737 49.6836518,50.3078556 49.6836518,50.3970276 C49.6836518,50.4861996 50.0997877,50.9766454 50.6199575,51.4819533 C51.1252654,51.9723992 51.7048832,52.611465 51.8980892,52.8938429 C52.343949,53.5031847 53.8598726,54.2611465 54.4246285,54.1571125 C54.7515924,54.0828025 54.9745223,54.2165605 55.6878981,54.8853503 C56.4607219,55.6284501 56.5350318,55.7324841 56.3715499,56.029724 C56.1783439,56.4012739 56.2972399,57.3821656 56.5647558,57.5456476 C56.6687898,57.6050955 56.8917197,57.6645435 57.0849257,57.6645435 C57.2781316,57.6645435 57.4118896,57.7537155 57.4118896,57.8874735 C57.4118896,58.0063694 57.6050955,58.1995754 57.8280255,58.3184713 C58.0658174,58.4373673 58.3333333,58.6454352 58.4373673,58.7643312 C58.5562633,58.8980892 58.7643312,59.0021231 58.9278132,59.0021231 C59.0764331,59.0021231 59.373673,59.1061571 59.566879,59.2399151 C59.7749469,59.373673 60.0721868,59.447983 60.2505308,59.403397 C60.4437367,59.343949 60.8152866,59.477707 61.2462845,59.7600849 C61.6178344,59.9978769 62.1082803,60.1910828 62.3163482,60.1910828 C62.5244161,60.1910828 62.85138,60.2951168 63.029724,60.4288747 C63.4607219,60.7261146 64.6942675,63.3566879 64.6942675,63.9808917 C64.6942675,64.2484076 64.8577495,64.6794055 65.0509554,64.9617834 C65.2590234,65.2441614 65.6305732,65.8832272 65.8980892,66.388535 C66.358811,67.2951168 66.358811,67.3397028 66.1953291,68.1868365 C65.9278132,69.3757962 66.2845011,70.3566879 67.2059448,71.0552017 C67.9341826,71.6199575 68.5583864,72.6305732 68.5583864,73.2399151 C68.5583864,73.8343949 68.9745223,75.0679406 69.2717622,75.4097665 C69.6730361,75.8704883 69.92569,76.836518 69.7176221,77.104034 C69.4203822,77.4607219 68.9150743,77.5647558 68.3354565,77.4161359 C67.9639066,77.3121019 67.2802548,77.3121019 66.1804671,77.4309979 C65.0658174,77.5350318 64.4564756,77.5350318 64.1740977,77.4309979 C63.6539278,77.2377919 62.0339703,77.5647558 60.3545648,78.2038217 L59.2101911,78.6348195 L59.0615711,79.3779193 C58.9723992,79.7791932 58.7643312,80.388535 58.5859873,80.7303609 C58.2590234,81.3694268 57.1295117,82.8259023 56.3418259,83.5987261 C56.089172,83.85138 55.6878981,84.3566879 55.4203822,84.7430998 C54.4840764,86.1549894 53.6815287,87.0912951 53.2059448,87.329087 C52.9532909,87.462845 52.492569,87.7749469 52.1804671,87.9978769 C51.6602972,88.4140127 50.5605096,88.8895966 50.2186837,88.8598726 C50.1295117,88.8450106 49.9214437,88.8004246 49.7579618,88.7707006 Z M11.5329087,48.1982362 C11.4288747,48.1674669 11.2208068,48.1674669 11.0870488,48.1982362 C10.9384289,48.24439 11.0276008,48.2751592 11.2653928,48.2751592 C11.5180467,48.2751592 11.6220807,48.24439 11.5329087,48.1982362 Z M7.75796178,43.0700637 C7.77282378,42.9957537 7.7133758,42.9511677 7.63906582,42.9511677 C7.46072187,42.9511677 7.31210191,43.3970276 7.43099788,43.5902335 C7.52016985,43.7388535 7.72823779,43.3970276 7.75796178,43.0700637 Z M28.6836518,28.8917197 C28.6390658,28.8471338 28.5053079,28.8322718 28.4012739,28.8768577 C28.2823779,28.9214437 28.3269639,28.9660297 28.4904459,28.9660297 C28.6539278,28.9808917 28.7430998,28.9363057 28.6836518,28.8917197 Z M24.0912951,28.2873577 C23.8535032,28.250994 23.4968153,28.250994 23.2738854,28.2873577 C23.0360934,28.3237213 23.2292994,28.3600849 23.6751592,28.3600849 C24.1210191,28.3600849 24.3142251,28.3237213 24.0912951,28.2873577 Z M26.9150743,28.1345419 C26.7664544,28.1037727 26.5286624,28.1037727 26.3949045,28.1345419 C26.2462845,28.1806957 26.3651805,28.211465 26.6475584,28.211465 C26.9299363,28.211465 27.0488323,28.1806957 26.9150743,28.1345419 Z"/>
    <path d="M44.131996 76.928318C44.0404114 76.831374 44.1014678 76.6956523 44.2846371 76.618097 44.4372782 76.5599306 44.5899192 76.6374858 44.5899192 76.7925963 44.5899192 77.1415949 44.4067499 77.1997614 44.131996 76.928318zM31.2547771 54.7968426C31.2547771 54.6417321 31.4074181 54.5641769 31.5600592 54.6223433 31.7432284 54.6998986 31.8042849 54.8356202 31.7127002 54.9325643 31.4379463 55.2040076 31.2547771 55.1458412 31.2547771 54.7968426zM3.68577495 26.3436687C3.507431 26.0014304 3.76008493 25.9293803 4.01273885 26.2355934 4.25053079 26.5237941 4.25053079 26.5418066 4.02760085 26.5418066 3.89384289 26.5418066 3.73036093 26.4517439 3.68577495 26.3436687zM20.2107942 3.03184713C20.0561555 2.70488323 20.2301241 2.57112527 20.5200716 2.7940552 20.6940402 2.92781316 20.6940402 3.01698514 20.5394015 3.1358811 20.4040926 3.23991507 20.3074434 3.21019108 20.2107942 3.03184713zM8.36730361 2.47929936C8.36730361 2.35429936 8.49230361 2.22929936 8.61730361 2.22929936 8.76730361 2.22929936 8.86730361 2.35429936 8.86730361 2.47929936 8.86730361 2.62929936 8.76730361 2.72929936 8.61730361 2.72929936 8.49230361 2.72929936 8.36730361 2.62929936 8.36730361 2.47929936zM7.90658174 1.85774947C7.89171975 1.81316348 7.87685775 1.72399151 7.86199575 1.64968153 7.86199575 1.57537155 7.78768577 1.45647558 7.7133758 1.38216561 7.63906582 1.30785563 7.62420382 1.35244161 7.6985138 1.47133758 7.75796178 1.57537155 7.75796178 1.64968153 7.6836518 1.60509554 7.60934183 1.57537155 7.05944798 1.30785563 6.47983015 1.02547771 5.51380042.564755839 5.11252654.237791932 5.30573248.0297239915 5.55838641-.222929936 8.21868365 1.27813163 8.21868365 1.67940552 8.21868365 1.90233546 7.95116773 2.05095541 7.90658174 1.85774947zM6.52441614.668789809C6.36093418.549893843 6.15286624.445859873 6.07855626.445859873 5.98938429.460721868 6.07855626.549893843 6.2866242.668789809 6.76220807.951167728 6.88110403.936305732 6.52441614.668789809zM11.1613588 1.59085785C11.0424628 1.4220057 11.2059448 1.33757962 11.5923567 1.33757962 11.9341826 1.33757962 12.2611465 1.45014772 12.3057325 1.61899988 12.4097665 1.92856217 11.4437367 1.90042014 11.1613588 1.59085785z"/>
  </g>
</svg>
