<svg xmlns="http://www.w3.org/2000/svg" width="82" height="105" viewBox="0 0 82 105">
  <g fill="#000000" transform="matrix(1 0 0 -1 .122 104.11)">
    <path d="M58.2878981,103.988535 C57.7133758,103.849257 56.1116773,102.369427 56.0072187,101.881953 C55.7808917,100.976645 54.7363057,99.1312102 53.7091295,97.8428875 C52.7341826,96.6416136 52.6471338,96.4849257 52.5426752,95.4055202 C52.3859873,93.7690021 52.403397,92.7244161 52.5949045,91.0356688 C52.8212314,89.1728238 52.5600849,87.7974522 51.8462845,87.0488323 C51.4806794,86.6658174 51.3762208,86.3872611 51.3762208,85.7430998 C51.358811,85.0118896 51.3065817,84.9248408 50.8016985,84.7159236 C50.2097665,84.4721868 49.3740977,83.566879 49.0955414,82.8704883 C48.4861996,81.3732484 47.8072187,80.0849257 47.6157113,80.0849257 C47.4938429,80.0849257 47.3545648,79.9630573 47.3023355,79.8237792 C47.2326964,79.6845011 47.0934183,79.5626327 46.9715499,79.5626327 C46.8322718,79.5626327 46.7104034,79.1796178 46.6407643,78.5354565 C46.5711253,77.9435244 46.4144374,77.4038217 46.2577495,77.2819533 C46.1184713,77.1600849 45.8921444,76.8292994 45.770276,76.5333333 C45.6309979,76.2373673 45.2828025,75.7324841 44.9694268,75.4191083 C44.4645435,74.9142251 44.4123142,74.7923567 44.5341826,74.2004246 C44.6038217,73.8522293 44.6386412,73.1210191 44.6212314,72.5987261 C44.6038217,71.8501062 44.6908705,71.5193206 44.9694268,71.1711253 L45.3350318,70.7010616 L44.8301486,69.6042463 C43.8552017,67.4454352 41.4874735,66.2789809 40.5125265,67.4976645 C40.1469214,67.9677282 40.1295117,67.9677282 39.1197452,67.7414013 C38.5626327,67.6195329 37.9010616,67.4802548 37.6747346,67.4106157 C37.0305732,67.2191083 36.5430998,66.4356688 36.52569,65.5651805 C36.4908705,64.8687898 36.5430998,64.781741 36.9435244,64.6772824 C37.1872611,64.6076433 37.5006369,64.4857749 37.6050955,64.3813163 C37.9707006,64.0853503 37.866242,63.3019108 37.3961783,62.6055202 C37.1524416,62.2399151 37.0131635,61.8569002 37.0653928,61.7524416 C37.1350318,61.6305732 37.1176221,61.5957537 37.047983,61.6828025 C36.9609342,61.7524416 36.7868365,61.7002123 36.6301486,61.5783439 C35.7248408,60.829724 32.7825902,60.2203822 33.0089172,60.829724 C33.0611465,60.9690021 33.0089172,61.2127389 32.8870488,61.3868365 C32.6781316,61.6653928 32.6433121,61.6305732 32.4518047,61.056051 C32.1732484,60.2377919 32.05138,60.1681529 31.2505308,60.4292994 C30.9023355,60.5511677 30.4322718,60.6382166 30.2059448,60.603397 C29.9796178,60.5859873 29.6836518,60.6556263 29.5443737,60.7600849 C29.3876858,60.8993631 28.9350318,60.9515924 28.3430998,60.8993631 C27.803397,60.8471338 27.3333333,60.8819533 27.281104,60.9690021 C27.2288747,61.0386412 27.0199575,61.1953291 26.8284501,61.2997877 C26.4976645,61.4738854 26.4802548,61.4564756 26.5673036,61.12569 C26.6369427,60.8471338 26.5847134,60.7600849 26.2887473,60.7600849 C26.0972399,60.7600849 25.644586,60.5685775 25.2789809,60.3248408 C24.6174098,59.8547771 23.1723992,59.5239915 22.4063694,59.6806794 C22.1800425,59.7154989 21.9014862,59.9070064 21.7970276,60.0985138 C21.5358811,60.5859873 21.2921444,60.307431 21.2921444,59.5414013 C21.2921444,58.8450106 20.8394904,58.3227176 20.2301486,58.3227176 C20.0734607,58.3227176 19.3770701,58.0615711 18.6632696,57.7307856 C17.3401274,57.1214437 16.626327,57.104034 16.7307856,57.695966 C16.7656051,57.8526539 16.6611465,58.0267516 16.5044586,58.0789809 C16.173673,58.2008493 15.6861996,57.8352442 15.8428875,57.5740977 C15.8951168,57.4870488 15.8602972,57.4522293 15.7732484,57.5044586 C15.6687898,57.5740977 15.129087,57.4174098 14.5719745,57.1562633 L13.5622081,56.7036093 L12.5002123,56.9995754 C11.6471338,57.2433121 10.8462845,57.2955414 8.1477707,57.2781316 C6.21528662,57.2607219 4.70063694,57.173673 4.49171975,57.0518047 C4.30021231,56.9647558 4.00424628,56.6861996 3.81273885,56.4424628 C3.62123142,56.2161359 3.20339703,55.9027601 2.8552017,55.763482 C2.17622081,55.4849257 1.44501062,54.8755839 1.44501062,54.5970276 C1.44501062,54.5099788 1.67133758,54.6318471 1.93248408,54.8929936 C2.19363057,55.1541401 2.52441614,55.3630573 2.62887473,55.3630573 C2.7507431,55.3630573 3.25562633,55.7286624 3.74309979,56.1987261 C4.59617834,56.9995754 4.64840764,57.0169851 5.69299363,56.9821656 C6.26751592,56.9821656 7.06836518,56.9473461 7.45138004,56.9125265 C7.85180467,56.8951168 8.2522293,56.9125265 8.3566879,56.9821656 C8.4611465,57.0518047 8.75711253,57.0343949 9.01825902,56.9299363 C9.64501062,56.6861996 10.2717622,56.7036093 10.3762208,56.9821656 C10.4284501,57.1214437 10.4980892,57.0866242 10.585138,56.8602972 C10.6721868,56.6687898 10.6373673,56.3902335 10.5154989,56.2161359 C10.2717622,55.8157113 10.3762208,55.7983015 10.9159236,56.1639066 C11.1944798,56.3205945 11.3685775,56.355414 11.4382166,56.2509554 C11.5078556,56.1464968 12.152017,56.0768577 12.8658174,56.0942675 C13.9974522,56.0942675 14.241189,56.1639066 14.6242038,56.5121019 C15.1813163,57.0343949 16.3477707,57.4174098 16.6089172,57.1562633 C16.7307856,57.0343949 16.5915074,56.8602972 16.1562633,56.5991507 C15.7036093,56.3380042 15.5469214,56.1464968 15.6165605,55.9201699 C15.7036093,55.6590234 15.5295117,55.6242038 13.7014862,55.5893843 C12.5872611,55.5719745 11.6471338,55.537155 11.629724,55.5023355 C11.5949045,55.4675159 11.5426752,55.1715499 11.5078556,54.8407643 C11.4730361,54.3881104 11.5252654,54.2314225 11.7167728,54.2314225 C11.8908705,54.2314225 11.9605096,54.3707006 11.9430998,54.6318471 C11.9082803,54.8407643 11.9779193,55.014862 12.0649682,55.014862 C12.1694268,55.014862 12.2390658,54.9452229 12.2390658,54.8407643 C12.2390658,54.7537155 12.4305732,54.6144374 12.6917197,54.5622081 C13.0050955,54.4751592 13.2314225,54.5447983 13.5099788,54.8059448 C13.7363057,55.014862 14.1715499,55.2063694 14.5023355,55.2237792 C15.0942675,55.2760085 15.0942675,55.2585987 15.2509554,54.4055202 C15.4598726,53.1346072 15.4598726,53.1694268 15.0246285,52.2292994 C14.5719745,51.2717622 14.4152866,51.1673036 14.2760085,51.7244161 C14.2237792,51.9159236 14.014862,52.1248408 13.8233546,52.1770701 C13.6318471,52.2292994 13.4403397,52.3511677 13.4055202,52.4730361 C13.3532909,52.6123142 13.0747346,52.6645435 12.67431,52.6123142 C12.2216561,52.5600849 12.0823779,52.4904459 12.2216561,52.3511677 C12.5176221,52.0552017 12.447983,51.881104 12.0823779,51.881104 C11.6123142,51.881104 11.5078556,51.6547771 11.6471338,50.9235669 C11.7515924,50.2968153 11.7690021,50.2968153 12.447983,50.4012739 C13.0050955,50.5057325 13.1791932,50.4535032 13.3707006,50.1923567 C13.7711253,49.6700637 13.6666667,48.7299363 13.0399151,47.4416136 C12.5350318,46.3970276 12.4828025,46.2055202 12.7265393,46.1184713 C12.970276,46.0314225 12.9528662,46.0140127 12.6917197,45.9095541 C12.0475584,45.6658174 11.7864119,45.8050955 11.1596603,46.814862 C10.6025478,47.7027601 10.5503185,47.8768577 10.7592357,48.0509554 C11.1248408,48.3469214 11.0900212,48.4861996 10.5677282,48.7299363 C10.1324841,48.9214437 10.1324841,48.9388535 10.3936306,49.3566879 C10.7592357,49.8963907 10.7418259,50.1053079 10.3762208,50.1749469 C10.1498938,50.2271762 10.2195329,50.2968153 10.6199575,50.4883227 C11.7515924,50.9932059 11.1248408,51.9159236 9.62760085,51.9681529 C9.19235669,51.9855626 8.75711253,52.0377919 8.65265393,52.0900212 C8.5656051,52.1596603 8.0433121,52.0900212 7.50360934,51.9681529 C6.96390658,51.8462845 6.47643312,51.7940552 6.42420382,51.8288747 C6.37197452,51.881104 6.21528662,51.8288747 6.05859873,51.7070064 C5.67558386,51.3762208 3.60382166,51.7940552 2.87261146,52.333758 C2.40254777,52.6993631 0.78343949,53.2738854 0.226326964,53.2738854 C-0.0522292994,53.2738854 -0.0522292994,52.6645435 0.208917197,52.0552017 C0.609341826,51.1324841 1.39278132,50.3838641 2.29808917,50.0530786 C3.65605096,49.5307856 4.59617834,48.8866242 4.70063694,48.3469214 C4.75286624,48.0857749 4.87473461,47.8246285 4.94437367,47.7723992 C5.03142251,47.7201699 5.10106157,47.3719745 5.10106157,46.9889597 C5.10106157,46.1010616 5.74522293,45.3698514 6.38938429,45.543949 C6.65053079,45.5961783 6.85944798,45.5613588 6.94649682,45.4046709 C7.22505308,44.9868365 7.15541401,44.7430998 6.78980892,44.7430998 C6.49384289,44.7430998 6.47643312,44.6908705 6.63312102,44.5341826 C6.80721868,44.3600849 6.92908705,44.3600849 7.19023355,44.5341826 C7.38174098,44.6386412 7.79957537,44.7430998 8.11295117,44.7430998 C9.27940552,44.7430998 10.6025478,43.2980892 10.2543524,42.3927813 C10.2021231,42.2360934 10.2717622,42.0794055 10.4110403,42.0271762 C10.7592357,41.8878981 10.7592357,40.5647558 10.4110403,40.1121019 C10.2717622,39.9380042 10.1498938,39.5549894 10.1498938,39.2764331 C10.1498938,38.9456476 9.95838641,38.614862 9.55796178,38.2318471 C8.70488323,37.4309979 8.00849257,35.9685775 7.97367304,34.8195329 C7.9388535,34.2972399 7.78216561,33.54862 7.60806794,33.1656051 C7.43397028,32.7825902 7.31210191,32.3299363 7.34692144,32.1732484 C7.36433121,31.9991507 7.19023355,31.4942675 6.96390658,31.0416136 C6.73757962,30.5715499 6.45902335,30.0144374 6.35456476,29.7707006 C5.46666667,27.6641189 4.90955414,26.8632696 4.17834395,26.5847134 C3.72569002,26.4106157 5.01401274,25.7664544 5.97154989,25.6794055 C6.11082803,25.6794055 6.21528662,25.5749469 6.19787686,25.4530786 C6.16305732,25.3312102 6.25010616,25.2441614 6.38938429,25.2441614 C6.72016985,25.2441614 7.36433121,24.4259023 7.36433121,24.0080679 C7.36433121,23.8165605 7.48619958,23.6772824 7.62547771,23.6772824 C8.00849257,23.6772824 8.13036093,23.259448 7.8866242,22.8067941 C7.76475584,22.5804671 7.72993631,22.1626327 7.78216561,21.8318471 C7.8866242,21.3443737 8.02590234,21.1876858 8.70488323,20.8917197 C9.36645435,20.5957537 9.47091295,20.5087049 9.27940552,20.2823779 C9.15753715,20.1430998 8.87898089,20.0212314 8.65265393,20.0212314 C8.13036093,20.0212314 8.13036093,19.7252654 8.60042463,18.8025478 C8.82675159,18.3673036 9.08789809,18.1061571 9.29681529,18.1061571 C9.66242038,18.1061571 9.71464968,17.9146497 9.43609342,17.6360934 C9.29681529,17.4968153 9.29681529,17.2704883 9.43609342,16.8352442 C9.61019108,16.3129512 9.71464968,16.2259023 10.1150743,16.2433121 C10.7070064,16.2781316 10.7418259,15.9125265 10.1498938,15.6165605 C9.90615711,15.4946921 9.61019108,15.1813163 9.48832272,14.9201699 C9.29681529,14.5197452 9.31422505,14.3630573 9.55796178,13.8233546 C9.71464968,13.4751592 9.99320594,13.1095541 10.1847134,13.0050955 C10.3936306,12.8658174 10.4980892,12.5872611 10.4980892,12.152017 C10.4980892,11.8038217 10.585138,11.4556263 10.6721868,11.403397 C10.9159236,11.2641189 10.8985138,10.3414013 10.6373673,9.94097665 C10.358811,9.48832272 10.9333333,8.54819533 11.7864119,8.0955414 C12.152017,7.90403397 12.5176221,7.60806794 12.6046709,7.43397028 C12.7091295,7.27728238 12.9354565,7.13800425 13.1095541,7.13800425 C13.3881104,7.13800425 13.4229299,7.05095541 13.3532909,6.65053079 C13.196603,5.91932059 13.7363057,5.37961783 14.7808917,5.22292994 C15.2857749,5.1358811 15.7210191,5.15329087 15.8428875,5.25774947 C16.104034,5.46666667 16.4174098,5.292569 16.4174098,4.96178344 C16.4174098,4.59617834 16.922293,4.17834395 17.3401274,4.17834395 C17.5490446,4.17834395 18.1932059,3.95201699 18.7677282,3.69087049 C19.3422505,3.41231423 19.9167728,3.22080679 20.0386412,3.27303609 C20.1605096,3.30785563 20.3694268,3.25562633 20.5087049,3.13375796 C20.8394904,2.8552017 22.7893843,3.27303609 23.4857749,3.77791932 C24.1473461,4.26539278 24.6,4.30021231 24.6,3.83014862 C24.6,3.09893843 26.2016985,2.87261146 26.3061571,3.58641189 C26.3583864,3.95201699 27.211465,4.50912951 27.211465,4.17834395 C27.211465,4.07388535 27.2985138,4.00424628 27.4029724,4.00424628 C27.507431,4.00424628 27.5596603,4.12611465 27.4900212,4.26539278 C27.4377919,4.40467091 27.4726115,4.52653928 27.5770701,4.52653928 C27.6641189,4.52653928 27.8904459,4.87473461 28.0819533,5.292569 C28.256051,5.7104034 28.4823779,6.11082803 28.5868365,6.16305732 C28.6912951,6.23269639 28.7783439,6.47643312 28.7783439,6.70276008 C28.7783439,7.08577495 29.1787686,7.39915074 29.4747346,7.22505308 C29.666242,7.10318471 30.2233546,7.78216561 30.0840764,7.9910828 C30.0318471,8.0955414 29.7881104,8.18259023 29.5443737,8.18259023 C29.3180467,8.18259023 29.1265393,8.26963907 29.1265393,8.3566879 C29.1265393,8.4611465 29.2832272,8.53078556 29.4747346,8.53078556 C29.6488323,8.53078556 30.1014862,8.72229299 30.4496815,8.96602972 C30.7978769,9.20976645 31.233121,9.40127389 31.3898089,9.40127389 C31.5639066,9.40127389 31.7902335,9.50573248 31.8946921,9.64501062 C32.0687898,9.85392781 32.0165605,9.95838641 31.6857749,10.1847134 C31.4420382,10.3414013 31.1983015,10.585138 31.1460722,10.7244161 C30.9719745,11.1944798 31.5464968,11.1944798 32.1036093,10.7244161 L32.6433121,10.2717622 L33.3397028,10.811465 C33.9142251,11.2815287 34.0012739,11.4382166 33.9142251,11.8038217 C33.8271762,12.1868365 33.844586,12.2216561 34.0535032,12.0301486 C34.4539278,11.6993631 35.0806794,12.5872611 34.958811,13.3010616 C34.8717622,13.7711253 34.958811,13.9452229 35.7248408,14.7112527 C36.2471338,15.1987261 36.6127389,15.7210191 36.6127389,15.9299363 C36.6127389,16.1388535 36.6649682,16.3651805 36.7346072,16.4348195 C36.9957537,16.6785563 37.2569002,17.8972399 37.1176221,18.1409766 C37.047983,18.2802548 37.0305732,18.9766454 37.0828025,19.6904459 C37.2569002,22.0929936 37.2220807,23.5902335 37.0131635,24.0254777 C36.8912951,24.2692144 36.7868365,24.6522293 36.7868365,24.895966 C36.7868365,25.2789809 36.6997877,25.3312102 36.0556263,25.3834395 C35.6203822,25.418259 35.2547771,25.5575372 35.1154989,25.7316348 C34.8021231,26.1494692 34.9239915,26.1842887 35.8292994,25.940552 C36.5430998,25.7490446 36.6649682,25.7490446 36.9261146,26.0101911 C37.1698514,26.2539278 37.2046709,26.6543524 37.1524416,29.0220807 C37.1176221,30.9719745 37.0305732,31.9643312 36.8390658,32.4343949 C36.5779193,33.0611465 36.5779193,33.1307856 36.9087049,33.5834395 C37.1176221,33.844586 37.3091295,34.4016985 37.3613588,34.8369427 C37.4135881,35.2547771 37.5354565,35.9163482 37.6399151,36.2993631 C37.7443737,36.6823779 37.866242,37.2046709 37.9184713,37.4832272 C37.9707006,37.7443737 38.1273885,37.9532909 38.2666667,37.9532909 C38.5974522,37.9532909 38.5974522,38.2318471 38.2666667,38.3711253 C38.1273885,38.4233546 37.9184713,38.6670913 37.796603,38.910828 C37.6921444,39.1545648 37.4832272,39.3460722 37.3613588,39.3460722 C36.9435244,39.3460722 37.2220807,39.7464968 37.7269639,39.8857749 C38.2144374,40.0250531 39.2764331,40.9303609 39.5898089,41.4874735 C39.7116773,41.7138004 39.7116773,41.8878981 39.5723992,42.0619958 C39.3983015,42.2535032 39.4157113,42.3927813 39.6420382,42.7409766 C39.7987261,42.9673036 39.9205945,43.2806794 39.9205945,43.4373673 C39.9205945,43.5766454 40.1991507,43.8377919 40.5299363,43.9944798 C41.2785563,44.3600849 41.3133758,44.7779193 40.6169851,45.2653928 C40.3384289,45.47431 40.0946921,45.770276 40.0946921,45.9443737 C40.0946921,46.518896 40.5299363,47.1978769 40.9651805,47.2849257 C41.2089172,47.337155 41.74862,47.4938429 42.1664544,47.633121 C42.6539278,47.7898089 43.2632696,47.8246285 43.907431,47.7549894 C45.1957537,47.633121 45.5091295,47.8072187 46.0836518,48.973673 C46.3273885,49.495966 46.9193206,50.2794055 47.4067941,50.7320594 C48.155414,51.4458599 48.3469214,51.5329087 49.0433121,51.5329087 C49.5481953,51.5329087 49.9138004,51.6373673 50.0530786,51.811465 C50.1749469,51.9507431 50.4360934,52.2118896 50.6101911,52.3685775 C51.6199575,53.2390658 51.9507431,53.6569002 51.8636943,53.8832272 C51.811465,54.0225053 51.8462845,54.1443737 51.9333333,54.1443737 C52.0203822,54.1443737 52.4556263,54.5447983 52.9082803,55.014862 C53.3609342,55.5023355 53.7961783,55.8853503 53.9006369,55.8853503 C53.9876858,55.8853503 54.2488323,56.0420382 54.492569,56.2335456 C54.7363057,56.4250531 55.1193206,56.581741 55.3282378,56.581741 C55.6938429,56.581741 57.3303609,57.9745223 57.3303609,58.2878981 C57.3303609,58.3749469 57.5218684,58.5316348 57.7656051,58.6360934 C58.0093418,58.740552 58.2008493,58.9320594 58.2008493,59.036518 C58.2008493,59.1409766 58.6883227,59.7154989 59.2976645,60.307431 C59.8895966,60.8819533 60.5685775,61.6305732 60.7949045,61.9613588 C61.3171975,62.6751592 63.0929936,63.5630573 63.7545648,63.441189 C64.1375796,63.3541401 64.3987261,63.510828 65.2343949,64.2942675 C66.1397028,65.1647558 66.2267516,65.2866242 66.0352442,65.6348195 C65.8089172,66.0700637 65.9481953,67.2191083 66.2615711,67.4106157 C66.3834395,67.4802548 66.644586,67.5498938 66.870913,67.5498938 C67.0972399,67.5498938 67.2539278,67.6543524 67.2539278,67.8110403 C67.2539278,67.9503185 67.4802548,68.1766454 67.7414013,68.3159236 C68.0199575,68.4552017 68.3333333,68.6989384 68.4552017,68.8382166 C68.5944798,68.9949045 68.8382166,69.1167728 69.029724,69.1167728 C69.2038217,69.1167728 69.552017,69.2386412 69.7783439,69.3953291 C70.0220807,69.552017 70.370276,69.6390658 70.5791932,69.5868365 C70.8055202,69.5171975 71.2407643,69.6738854 71.7456476,70.0046709 C72.1808917,70.2832272 72.755414,70.5095541 72.9991507,70.5095541 C73.2428875,70.5095541 73.6259023,70.6314225 73.8348195,70.7881104 C74.3397028,71.1363057 75.7847134,74.2178344 75.7847134,74.9490446 C75.7847134,75.2624204 75.9762208,75.7673036 76.2025478,76.0980892 C76.4462845,76.4288747 76.8815287,77.1774947 77.1949045,77.7694268 C77.7346072,78.8314225 77.7346072,78.8836518 77.5430998,79.8760085 C77.229724,81.2687898 77.6475584,82.4178344 78.7269639,83.2360934 C79.5800425,83.8976645 80.3112527,85.0815287 80.3112527,85.7953291 C80.3112527,86.4917197 80.7987261,87.9367304 81.1469214,88.337155 C81.6169851,88.8768577 81.9129512,90.0084926 81.6692144,90.3218684 C81.3210191,90.7397028 80.729087,90.8615711 80.0501062,90.6874735 C79.614862,90.5656051 78.8140127,90.5656051 77.52569,90.7048832 C76.2199575,90.8267516 75.5061571,90.8267516 75.1753715,90.7048832 C74.5660297,90.4785563 72.6683652,90.8615711 70.7010616,91.6101911 L69.3605096,92.1150743 L69.1864119,92.9855626 C69.0819533,93.4556263 68.8382166,94.1694268 68.6292994,94.5698514 C68.2462845,95.3184713 66.9231423,97.0246285 66.0004246,97.9299363 C65.7044586,98.2259023 65.2343949,98.8178344 64.9210191,99.2704883 C63.8242038,100.924416 62.8840764,102.021231 62.3269639,102.299788 C62.0309979,102.456476 61.4912951,102.822081 61.12569,103.083227 C60.5163482,103.570701 59.2280255,104.127813 58.8276008,104.092994 C58.7231423,104.075584 58.4794055,104.023355 58.2878981,103.988535 Z M13.5099788,56.4598726 C13.3881104,56.4250531 13.1443737,56.4250531 12.9876858,56.4598726 C12.8135881,56.5121019 12.9180467,56.5469214 13.196603,56.5469214 C13.492569,56.5469214 13.6144374,56.5121019 13.5099788,56.4598726 Z M9.08789809,50.4535032 C9.10530786,50.3664544 9.03566879,50.3142251 8.94861996,50.3142251 C8.73970276,50.3142251 8.5656051,50.836518 8.70488323,51.062845 C8.80934183,51.2369427 9.05307856,50.836518 9.08789809,50.4535032 Z M33.6008493,33.844586 C33.54862,33.7923567 33.3919321,33.7749469 33.2700637,33.8271762 C33.1307856,33.8794055 33.1830149,33.9316348 33.3745223,33.9316348 C33.5660297,33.9490446 33.6704883,33.8968153 33.6008493,33.844586 Z M28.2212314,33.1319436 C27.9426752,33.09558 27.5248408,33.09558 27.2636943,33.1319436 C26.985138,33.1683073 27.211465,33.2046709 27.733758,33.2046709 C28.256051,33.2046709 28.4823779,33.1683073 28.2212314,33.1319436 Z M31.529087,32.9566879 C31.3549894,32.9218684 31.0764331,32.9218684 30.9197452,32.9566879 C30.7456476,33.0089172 30.8849257,33.0437367 31.2157113,33.0437367 C31.5464968,33.0437367 31.6857749,33.0089172 31.529087,32.9566879 Z"/>
    <path d="M51.6902679 90.0595383C51.5986833 89.9625942 51.6597397 89.8268725 51.842909 89.7493173 51.99555 89.6911509 52.1481911 89.7687061 52.1481911 89.9238166 52.1481911 90.2728152 51.9650218 90.3309816 51.6902679 90.0595383zM36.6127389 64.1573622C36.6127389 64.0022518 36.7653799 63.9246965 36.918021 63.9828629 37.1011902 64.0604182 37.1622467 64.1961399 37.070662 64.2930839 36.7959081 64.5645273 36.6127389 64.5063608 36.6127389 64.1573622zM4.31762208 30.8079784C4.10870488 30.4657401 4.40467091 30.39369 4.70063694 30.6999031 4.97919321 30.9881038 4.97919321 31.0061163 4.71804671 31.0061163 4.56135881 31.0061163 4.36985138 30.9160536 4.31762208 30.8079784zM23.6656064 3.55159236C23.5109677 3.16857749 23.6849362 3.0118896 23.9748838 3.27303609 24.1488523 3.42972399 24.1488523 3.53418259 23.9942136 3.67346072 23.8589048 3.79532909 23.7622556 3.76050955 23.6656064 3.55159236zM9.80169851 2.86146497C9.80169851 2.73646497 9.92669851 2.61146497 10.0516985 2.61146497 10.2016985 2.61146497 10.3016985 2.73646497 10.3016985 2.86146497 10.3016985 3.01146497 10.2016985 3.11146497 10.0516985 3.11146497 9.92669851 3.11146497 9.80169851 3.01146497 9.80169851 2.86146497zM9.26199575 2.17622081C9.24458599 2.12399151 9.22717622 2.01953291 9.20976645 1.93248408 9.20976645 1.84543524 9.12271762 1.70615711 9.03566879 1.61910828 8.94861996 1.53205945 8.93121019 1.58428875 9.01825902 1.72356688 9.08789809 1.84543524 9.08789809 1.93248408 9.00084926 1.88025478 8.91380042 1.84543524 8.26963907 1.53205945 7.59065817 1.20127389 6.45902335.661571125 5.98895966.278556263 6.21528662.0348195329 6.51125265-.261146497 9.62760085 1.49723992 9.62760085 1.96730361 9.62760085 2.22845011 9.31422505 2.40254777 9.26199575 2.17622081zM7.64288747.78343949C7.45138004.644161359 7.20764331.522292994 7.12059448.522292994 7.01613588.53970276 7.12059448.644161359 7.36433121.78343949 7.92144374 1.11422505 8.06072187 1.09681529 7.64288747.78343949zM13.0747346 1.82015722C12.9354565 1.65130506 13.1269639 1.56687898 13.5796178 1.56687898 13.9800425 1.56687898 14.3630573 1.67944709 14.4152866 1.84829924 14.537155 2.15786153 13.4055202 2.1297195 13.0747346 1.82015722z"/>
  </g>
</svg>
