<svg xmlns="http://www.w3.org/2000/svg" width="83" height="144" viewBox="0 0 83 144">
  <path fill="#000000" stroke="#000000" stroke-width=".5" d="M1033.32,492.67 L1032.6,491.5 L1032.15,491.42 L1031.64,491.51 L1030.35,492.19 L1029.71,493.5 L1029.8,494.24 L1030.15,495.18 L1030.67,495.7 L1031.26,496.04 L1030.59,498.73 L1030.56,499.12 L1030.34,499.39 L1030.01,499.3 L1029.69,498.74 L1029.24,498.31 L1028.54,498.03 L1027.65,497.98 L1026.69,498.08 L1025.81,498.08 L1025.02,497.18 L1023.64,496.2 L1023.59,495.84 L1024.04,494.67 L1024.58,492.93 L1024.83,491.36 L1025.75,490.05 L1026.14,488.97 L1026.62,486.78 L1026.31,485.89 L1026.37,484.81 L1026.73,484.37 L1027.58,484.08 L1027.69,484.33 L1029.14,482.88 L1030.14,481.99 L1030.6,481.78 L1030.85,481.34 L1031.75,481.03 L1032.61,480.59 L1033.43,479.96 L1034.17,479.13 L1034.72,478.34 L1035.38,477.39 L1036.22,476.55 L1036.75,476.21 L1037.43,475.92 L1038.2,476.42 L1039.07,477.49 L1039.67,477.69 L1039.59,479.12 L1039.28,479.73 L1038.72,479.59 L1037.66,479.65 L1037.31,481.22 L1037.52,481.78 L1037.38,482.08 L1037.13,482.17 L1036.69,482.45 L1036.12,483.01 L1035.7,483.38 L1034.96,483.73 L1034.08,485.93 L1034.29,486.76 L1033.81,487.5 L1033.83,488.44 L1034.5,489.11 L1034.6,490.11 L1034.76,490.34 L1035.63,490.68 L1035.7,491.42 L1035.28,491.88 L1035.01,492.48 L1034.89,492.97 L1033.32,492.67 Z M1017.55,520.1 L1018.92,518.53 L1019.5,517.03 L1020.27,517.03 L1020.67,516.88 L1020.51,516.24 L1020.3,515.97 L1021.06,512.89 L1021.57,511.21 L1021.66,510.59 L1021.51,509.58 L1021.2,508.8 L1020.37,508.5 L1019.6,507.91 L1019.07,507.05 L1018.85,506.16 L1018.9,504.9 L1019.6,504.24 L1020.01,503.51 L1019.88,502.94 L1019.84,501.81 L1019.82,500.48 L1019.61,499.4 L1019.16,498.71 L1018.48,498.34 L1018.01,498.25 L1017.81,498.41 L1017.21,499.23 L1016.2,500.26 L1014.81,501.57 L1014.07,502.47 L1013.65,503.11 L1012.77,504.24 L1012.77,504.97 L1012.22,506.08 L1011.45,507.39 L1011.07,508.61 L1011.61,509.44 L1011.69,509.95 L1011.43,510.47 L1012.4,511.95 L1012.62,512.04 L1013.47,511.74 L1013.96,511.98 L1014.27,512.43 L1014.51,513.47 L1014.69,514.02 L1015.15,514.44 L1015.92,514.86 L1016.3,515.73 L1016.59,517.95 L1016.65,518.9 L1016.86,519.82 L1017.55,520.1 Z M1008.84,529.66 L1010.72,527.83 L1010.78,527.42 L1010.33,527.07 L1009.86,526.91 L1009.33,527.22 L1006.21,528.25 L1005.79,529.02 L1005.89,529.79 L1006.33,530.13 L1007.91,529.76 L1008.84,529.66 Z M969.71,615.98 L970.28,615.87 L970.75,615.55 L970.65,614.61 L971.65,613.13 L973.51,612.63 L973.93,612.54 L974.31,612.54 L975.25,612.65 L976.1,612.55 L976.93,611.4 L977.3,608.17 L976.2,607.61 L974.21,607.22 L973.2,607 L972.44,606.71 L971.43,607 L970.33,607.56 L969.3,608.34 L968.33,609.09 L967.4,609.62 L966.36,610.01 L965.19,610.28 L963.89,610.33 L963.31,610.33 L962.29,610.53 L959.6,614.59 L958.98,615.23 L958.56,615.6 L958.23,615.96 L958.03,616.55 L958.01,616.92 L958.05,617.31 L958.56,617.12 L959.05,616.67 L959.58,615.94 L960.11,615.22 L960.66,614.71 L961.09,614.59 L962.15,615.01 L963.24,615.66 L963.34,616.1 L963.34,616.93 L963.25,617.71 L963.55,618.07 L964.2,618.03 L965.04,617.78 L965.91,617.38 L966.37,617.5 L966.88,617.49 L967.68,617.34 L968.23,617.31 L968.53,617.41 L968.97,617.11 L969.4,616.58 L969.71,615.98 Z" transform="translate(-957 -475)"/>
</svg>
