<svg xmlns="http://www.w3.org/2000/svg" width="100" height="32" viewBox="0 0 151 47">
  <path fill="#000000" stroke="#000000" stroke-width=".5" d="M721.3,714.68 L727.96,716.33 L729.06,715.8 L730.62,716.91 L728.52,717.46 L726.18,718 L725.55,718.43 L724.79,718.73 L724.08,718.5 L722.73,717.73 L722.2,718.57 L720.38,718.93 L719.38,719.44 L719.22,719.62 L718.38,720.2 L717.09,720.63 L715.88,720.54 L714.92,719.83 L710.34,721.01 L708.64,720.44 L707.76,719.39 L707.8,718.04 L712.36,717.25 L713.03,716.97 L717.49,715.9 L717.92,715.07 L721.3,714.68 Z M725.36,700.19 L726.83,701.95 L727.4,701.18 L728.9,701.2 L730.2,701.71 L731.82,702.72 L732.29,703.85 L731.53,704.68 L730.92,704.94 L729.69,703.68 L728.07,703.36 L729.63,704.95 L729.1,705.89 L725.85,702.51 L724.75,700.37 L725.36,700.19 Z M596.39,687.47 L601.75,687.84 L604.64,689.38 L609.57,689.96 L612.9,689.29 L615.71,689.7 L618.67,689.25 L622.15,690.71 L624.52,690.9 L625.12,690.03 L626.37,690.2 L626.86,689.47 L630.56,689.15 L633.89,689.96 L635.52,689.47 L637.34,690.35 L638.06,689.9 L642.99,691.14 L644.44,689.75 L647.31,689.15 L648.87,689.6 L651.77,689.75 L653.94,690.56 L655.76,690.92 L656.84,690.19 L657.94,690.43 L660.48,691.35 L663.02,691.03 L664.08,692.49 L666.45,691.42 L667.02,692.99 L668.59,693.01 L668.63,694.21 L670.59,692.99 L668.81,692.09 L668.11,691.92 L667.42,690.78 L670.15,691.13 L670.6,691.69 L673.81,692.22 L674.87,693.03 L676.57,692.93 L677.29,691.77 L682.18,693 L683.8,692.33 L685.72,693.55 L688.75,693.98 L690.33,695.72 L692.15,694.76 L693.54,695.4 L693.54,696.43 L695.26,697.71 L695.83,698.01 L697.24,697.24 L698.88,698.94 L701.55,699.35 L702.88,697.91 L703.51,698.85 L704.84,697.35 L704.74,699.04 L703.47,700.6 L704.19,701.69 L704.31,703.81 L703.54,704.94 L704.35,705.71 L704.1,707.27 L704.98,707.63 L705.49,707.89 L706.93,709.71 L705.93,709.54 L705.62,710.63 L705.31,711 L704.88,709.74 L704.49,709.4 L703.82,709.29 L703.23,710.28 L704.11,711.22 L703.87,711.84 L701.48,711.31 L699.54,712.19 L699.44,713.54 L697.87,712.69 L696.3,713.29 L693.07,717.29 L691.7,722.31 L688.76,723.19 L689.35,724.88 L688.94,726.38 L688.16,726.06 L687.26,726.92 L686.3,726.75 L685.22,728.29 L684.29,727.97 L682.78,729.21 L678.98,729.23 L678.14,729.76 L676.07,728.76 L674.97,729.08 L673.19,730.96 L670.92,729.8 L664.97,732.84 L663.21,732.07 L663.85,731.43 L661.5,730.15 L659.56,731.39 L659.91,732.29 L659.11,732.97 L658.54,732.65 L656.45,731.21 L655.45,731.75 L654.79,730.45 L652.95,728.91 L649.99,729.72 L649.03,730.68 L648.26,732.1 L642.52,727.99 L639.58,728.22 L633.83,730.3 L633.01,729.49 L631.15,730.2 L631.29,729 L630.57,728.62 L627.24,729.9 L623.36,727.91 L621.62,728.12 L620.66,729.45 L620.52,728.55 L621.19,727.2 L620.29,726.81 L619.02,728.35 L618.75,729.42 L615.19,731.15 L613.61,730.68 L612.96,731.65 L612.55,730.96 L609.83,731.09 L608.15,731.73 L609.09,732.44 L608.72,732.95 L606.25,732.63 L606.44,732.03 L604.46,731.03 L602.84,729.51 L602.2,729.34 L599.85,729.77 L598.62,729.22 L597.8,729.39 L597.35,730.52 L596.55,730.97 L595.44,731.49 L591.39,730.87 L589.88,730.01 L588.96,730.95 L589.63,732.53 L588.77,732.51 L587.26,731.01 L587.24,728.36 L587.87,727.36 L590.08,726.61 L590.43,725.61 L587.65,724.46 L588.4,723.69 L588.56,721.85 L588.22,721.04 L589.71,718.77 L589.34,716.89 L590.08,715.67 L589.42,714.54 L591.82,711.56 L590.28,709.85 L588.89,705.2 L585.76,704.21 L583.08,699.29 L587.46,697.71 L591.26,695.4 L591.65,693.86 L590.63,691.31 L590.94,689.7 L592.91,688.16 L596.39,687.47 Z" transform="translate(-582 -687)"/>
</svg>
